{"title":"Day of the Dead - Bloodline (2018) HDRip H264 MPEG-4 AAC Spy1984","magnet":"magnet:?xt=urn:btih:f446542d9b0c760018106cf39d37d4f82a115988&dn=Day+of+the+Dead+-+Bloodline+%282018%29+HDRip+H264+MPEG-4+AAC+Spy1984&tr=udp%3A%2F%2Ftracker.leechers-paradise.org%3A6969&tr=udp%3A%2F%2Fzer0day.ch%3A1337&tr=udp%3A%2F%2Fopen.demonii.com%3A1337&tr=udp%3A%2F%2Ftracker.coppersurfer.tk%3A6969&tr=udp%3A%2F%2Fexodus.desync.com%3A6969","uploader":"spy1984","categoryP":"video","categoryS":"hd___movies","size":"392053133","seeders":"0","leechers":"0","description":"A small group of military personnel and some survivalists dwell in an underground bunker as they seek to find a cure in a world overrun by zombies.\r\n <a href=\"\nhttp://www.4kw.in/4695.html\" rel=\"nofollow\" target=\"_NEW\">\nhttp://www.4kw.in/4695.html</a>\r\n <a href=\"\nhttp://www.4kw.in/4696.html\" rel=\"nofollow\" target=\"_NEW\">\nhttp://www.4kw.in/4696.html</a>\r\n <a href=\"\nhttp://www.4kw.in/4697.html\" rel=\"nofollow\" target=\"_NEW\">\nhttp://www.4kw.in/4697.html</a>\r\n <a href=\"\nhttp://www.4kw.in/4698.html\" rel=\"nofollow\" target=\"_NEW\">\nhttp://www.4kw.in/4698.html</a>\r\n\r\n\r\nGeneral\r\n\r\n\r\nFormat                                   : MPEG-4\r\nFormat profile                           : Base Media\r\nCodec ID                                 : isom (isom/iso2/avc1/mp41)\r\nFile size                                : 374 MiB\r\nDuration                                 : 1 h 30 min\r\nOverall bit rate                         : 577 kb/s\r\nWriting application                      : Lavf57.83.100\r\n\r\nID                                       : 1\r\nFormat                                   : AVC\r\nFormat/Info                              : Advanced Video Codec\r\nFormat profile                           : <a href=\"/cdn-cgi/l/email-protection\" class=\"__cf_email__\" data-cfemail=\"c58daca2ad8589f6ebf4\">[email&#xA0;protected]</a>\r\nFormat settings                          : CABAC / 5 Ref Frames\r\nFormat settings, CABAC                   : Yes\r\nFormat settings, RefFrames               : 5 frames\r\nCodec ID                                 : avc1\r\nCodec ID/Info                            : Advanced Video Coding\r\nDuration                                 : 1 h 30 min\r\nBit rate                                 : 512 kb/s\r\nWidth                                    : 720 pixels\r\nHeight                                   : 304 pixels\r\nDisplay aspect ratio                     : 2.35:1\r\nFrame rate mode                          : Constant\r\nFrame rate                               : 23.976 (24000/1001) FPS\r\nColor space                              : YUV\r\nChroma subsampling                       : 4:2:0\r\nBit depth                                : 8 bits\r\nScan type                                : Progressive\r\nBits/(Pixel*Frame)                       : 0.098\r\nStream size                              : 329 MiB (88%)\r\n\r\nID                                       : 2\r\nFormat                                   : AAC\r\nFormat/Info                              : Advanced Audio Codec\r\nFormat profile                           : LC\r\nCodec ID                                 : mp4a-40-2\r\nDuration                                 : 1 h 30 min\r\nBit rate mode                            : Constant\r\nBit rate                                 : 64.6 kb/s\r\nChannel(s)                               : 2 channels\r\nChannel positions                        : Front: L R\r\nSampling rate                            : 48.0 kHz\r\nFrame rate                               : 46.875 FPS (1024 SPF)\r\nCompression mode                         : Lossy\r\nStream size                              : 41.9 MiB (11%)\r\nDefault                                  : Yes\r\nAlternate group                          : 1","last_updated":"2018-01-07T12:05:44.981Z","parsed":{"xt":"urn:btih:f446542d9b0c760018106cf39d37d4f82a115988","dn":"Day of the Dead - Bloodline (2018) HDRip H264 MPEG-4 AAC Spy1984","tr":["udp://exodus.desync.com:6969","udp://open.demonii.com:1337","udp://tracker.coppersurfer.tk:6969","udp://tracker.leechers-paradise.org:6969","udp://zer0day.ch:1337"],"infoHash":"f446542d9b0c760018106cf39d37d4f82a115988","infoHashBuffer":{"type":"Buffer","data":[244,70,84,45,155,12,118,0,24,16,108,243,157,55,212,248,42,17,89,136]},"name":"Day of the Dead - Bloodline (2018) HDRip H264 MPEG-4 AAC Spy1984","announce":["udp://exodus.desync.com:6969","udp://open.demonii.com:1337","udp://tracker.coppersurfer.tk:6969","udp://tracker.leechers-paradise.org:6969","udp://zer0day.ch:1337"],"urlList":[]}}